<?xml version="1.0" encoding="utf-8"?>
<!-- Generator: Adobe Illustrator 16.0.0, SVG Export Plug-In . SVG Version: 6.00 Build 0)  -->
<!DOCTYPE svg PUBLIC "-//W3C//DTD SVG 1.1//EN" "http://www.w3.org/Graphics/SVG/1.1/DTD/svg11.dtd">
<svg version="1.1" id="레이어_1" xmlns="http://www.w3.org/2000/svg" xmlns:xlink="http://www.w3.org/1999/xlink" x="0px"
	 y="0px" width="612px" height="792px" viewBox="0 0 612 792" enable-background="new 0 0 612 792" xml:space="preserve">
<g>
	<g>
		<ellipse fill="#5F3329" cx="-349.438" cy="261.832" rx="29.833" ry="3.416"/>
		<ellipse fill="#322625" cx="-347.781" cy="261.47" rx="23.657" ry="1.445"/>
		<path fill="#5B3533" d="M-198.602,267.918c0,0-28.34,2.5-42,16c-13.67,13.5-29.84,22-42.84,36.001c-13,14-22.16,19.33-34.5,21.33
			c-1.439,0.23-2.627,1.426-3.496,0.666c-1.791,2.09-4.794,1.334-8.834,1.334l-16.83-1c-6.63,0-32.17-10.5-30.67-38.501l-1.5-37.33
			c0-8.46-0.68-1.68,14.13-1.68l35.729-0.37c6.631,0,9.811-5.75,9.811,0.88v39.33c0,0,7.33,2.17,12.66,0
			c5.34-2.16,49.84-33,69.34-38.16c19.5-5.17,32.83-7.62,37.83-6.391C-198.102,263.078-198.102,264.918-198.602,267.918z"/>
		<path fill="#070202" d="M-192.772,266.748c0,1.934-1.567,3.5-3.5,3.5l0,0c-1.933,0-3.5-1.566-3.5-3.5v-7
			c0-1.934,1.567-3.5,3.5-3.5l0,0c1.933,0,3.5,1.566,3.5,3.5V266.748z"/>
	</g>
	<path fill="#070202" d="M-278.716,288.219c5.75,6.5,6.62,18.188,7,19.5c0.38,1.314,23.871-17.033,33-26.25
		c9.048-7.539,31-11.499,36.5-10.249s0-9.75,0-9.75s-6.298,1.04-20.75,2.5s-50.25,17.188-53,20.72L-278.716,288.219z"/>
</g>
<g>
	<g>
		<path fill="#F6A87F" d="M-604.513,377.361c0,0-2-30,3-39.5s7.5-13,12.5-13s11,7,10.5,10.5s-2.365,27.5-13.183,50
			s-4.317,39.999-4.317,47.499s9.135,13.5,4.317,19.5s-14.817,14.5-16.317,14s2-19.5,0-28.5s6.5-44.499,4-48.499
			S-604.513,377.361-604.513,377.361z"/>
		<path fill="#5D5D5D" d="M-604.429,376.516c0,0,12.75-44,17-44.5s9.75,4,4.75,17.5s-10.75,20.75-11,24s-3,0-3,4.25
			s0,17.75,0.75,20.5s2,3.5,0.75,5.75s-4.25,3.25-3.5,6.5s0.5,5.249,1.5,6.749s0.25,2.75-0.75,6s-2.75,5.25-0.5,8
			s2.75,5.75,2.75,7.5s0.75,5.75-1.25,7.25s-4.25,3.5-5,4.5s-4.5,1-4.25,0s1.5-15,1.5-15s-2.5-9.75,0-14.75s0.75-7.499,0.75-11.999
			s-0.5-6.5,0.75-9.75s1.75-4.5,1.75-5.25s-0.25-3.5,0.75-6.5s1.25-4-0.25-5S-605.297,379.455-604.429,376.516z"/>
	</g>
	<g>
		<path fill="#F6A87F" d="M-843.651,478.021l-10-4c0,0-4-1.5-3.5-9.5s-2.587-11-0.043-12s3.543-5,3.043-8s-0.5-5.592-2-8.045
			c-1.5-2.455-0.123-8.455-2.062-9.955s-3.938-9.5-3.938-12.499c0-3.001-4-16.001-4-16.001l-3-11c0,0,0-4.5-6.5-14.5s-4.5-35-3-38.5
			s4-9.5,6-10s9.488-0.5,10.744,2s6.756,9.5,8.256,11.5s1.5-1.5,0.5,7.5s1,21,0,25s-3.5,29.5-3,33s3,25.5,5.5,29.5s1,17.5,1.5,22.5
			s1.5,8,3,13S-843.651,478.021-843.651,478.021z"/>
		<path fill="#5D5D5D" d="M-867.932,337.027c0,0-6.5,1.5-4.5,18s6,26.5,8.5,28s-4.882-17-4.441-17.5s0.077-12,0.259-14.5
			s-3.682-10,0-9.5s3.718,3.5,4.7,5s-1.518-9.5-1.518-9.5H-867.932z"/>
	</g>
	<path fill="#FFFFFF" d="M-831.134,790.933"/>
	<path fill="#E89B70" d="M-842,300.826c18-7.421,184.334,1.359,191.334,0.193s37.166,3.166,40.5,6.666
		c3.332,3.5,2.666,7.668,4.666,12.5c2,4.834,1,12.668,1,20.168s-5.666,72.5-6,83.333c-0.334,10.832-2.666,58.834-4.166,58.666
		c-1.5-0.166-1.666,5.668-4.166,14.168s-16.5,36.832-19.668,42.332c-3.166,5.5-21,27.168-44.666,47.168s-37,19.666-59.001,17.332
		c-22-2.334-34.666-17.666-49.166-30.166s-30.667-24.332-32-27.832S-834,526.687-836.5,511.021s-6.167-25.834-7.333-27.334
		s-1.834,0.334-5.334,0s-6.833-6.332-8-10.166c-1.166-3.832-1.166-9.834,1.5-14.666c2.667-4.834,0.5-2.834,1.167-12.168
		s2.024-26.168,1.167-33.165c-0.914-7.453-8.5-81.168-8.5-81.168s-0.167-7.834,0-14c0.167-6.168,0.583-10.511,3.833-12.167
		C-858.218,305.343-842,300.826-842,300.826z"/>
	<g>
		<g>
			<g>
				<path fill="#E8E9DF" d="M-831.333,555.048c0,0,0,9,0,18s0,45,9,72s18,99,27,117s10,72,10,72h117l35-171c0,0,18-90,9-90
					s-18,54-90,63C-795.333,618.048-804.333,591.048-831.333,555.048z"/>
				<path fill="#CFC6B7" d="M-831.214,537.048c0,0,25.417,74.083,97.417,92.083c-27,72-27,72-27,72l-59.75-38.666
					C-820.547,662.465-838.63,543.965-831.214,537.048z"/>
				<path fill="#CFC6B7" d="M-725,636.048l27,81l63-54c0,0,9-36,9-90C-662,609.048-653,618.048-725,636.048z"/>
			</g>
			<g>
				<path fill="#37373F" d="M-1031,691.048l49-18c0,0,21-10,45-24s32.374-17.738,32.374-17.738l2.626-5.262l11-8l16-14l23-27l9-16
					l8-10l5-8l1,11.5v5.5l-3.5,17.5l1.5,17c0,0,0.5,18.5,1.5,22.5s6.5,29,4.5,28s6,22.5,6,22.5s5.5,33.5,7,37.5s10,38.5,11.5,40
					s8,28,5.5,28.5s1.133,21,0.566,22.5s6.434,20.5,6.434,20.5v15.5l-241,2L-1031,691.048z"/>
				<path fill="#42454A" d="M-830.585,541.881c0,0-8,7.5-11.834,14.5s-9.5,16.834-11,18.167s-2.166,4.667-6.666,10.667
					s-7.668,8.5-7.668,8.5l-8,7.333l-4.5,5.002c0,0-5.666,5.833-6.832,5.833c-1.168,0-2.668,2.667-4.334,3.167
					s-5.834,4.167-5.834,4.167l-4,3.166c0,0-3.332,4-3.832,4.5s-1,3.334-1,3.334l1.916,1.081l-1.916,4.75v6.75v14.25l-2.334,5.25
					c0,0-2,4.75-1.75,6s-2.25,7.25-2.25,8.75s-2,16.75-1.5,20.5s16.25,30.25,19.75,33.75s-3.25,10-3.75,12.25s-9.5,10.5-9.5,10.5
					l-2,6.5c0,0-1.5,3.25,1,6.75s15.25,17,15.25,17s4.75,9.5,3.5,11s5.25,9.25,5.25,9.25l6.5,10l-0.75,6l3.25,10.5h88.25v-12
					c0,0-8.5-39.5-7.75-40.5s-4-24-4-24l-8-31l-6.25-23.25l-6.75-33l-3.75-18l-2.25-17l-3.5-18.5l-2-10.25l-0.5-13.75
					c0,0-1-11.75-0.5-16.5s2.5-14.25,2.5-14.25l1.25-3.25l2-2.5v-2.25l-1.5-4L-830.585,541.881z"/>
			</g>
			<g>
				<path fill="#37373F" d="M-626.75,533.124c0,0,0,72,0,90c0,20.125-27,144-36,162s-9,45-9,45l252.75-1.5l-0.25-140.75
					c0,0-18.5-10.75-36.5-19.75s-99-45-135-90S-626.75,533.124-626.75,533.124z"/>
				<path fill="#42454A" d="M-625.07,540.364v19c0,0-2,33.25-2,35.75s-7.25,58.75-8,59.75s-3.25,22.75-4.75,30.5
					s-21.75,101.25-24,101.75s-10.75,43.75-11.25,43s106.25,0.01,106.25,0.01s32.25-65.26,32.75-68.51s-1.75-10.25-3.5-11.25
					s-24-25.5-28-24.75s15.5-33,22-35.25s0.75-22.25,0.5-32s1.25-28.5,0.5-30s-45-38.25-55.25-52.75s-20-32.5-22.25-35.25
					s-3.75-3-3.75-3L-625.07,540.364z"/>
			</g>
		</g>
		<path fill="#CB644D" d="M-734,632.124h9c0,0,18,54,18,63s-9,18-9,18s27,54,27,63s-6,54-3,54s-51,0-60,0s-9,0-9-9s9-72,9-72
			s9-27,9-36s-9-27-9-27s0-9,9-27C-734.95,643.024-734,632.124-734,632.124z"/>
	</g>
	<path fill="#CB8764" d="M-827.772,521.938l-0.625,22.25c0,0,6.375,27.75,22.542,42.917s20,27.334,68.667,45.667
		c0,0,49.833,2.334,78.833-24.166s32.501-40,35.167-47.5s1.166-47.834,1.166-47.834s-10.667,21.5-19,34.167
		s-46.666,43.667-53.333,47.5s-26.667,5.501-34.834,5.167c-8.166-0.334-18.166-1-24.166-4.667s-55.833-41.667-63-53.667
		S-827.772,521.938-827.772,521.938z"/>
	<path fill="#3D3331" d="M-729,604.457c0,0,49-2.667,49.334-1s6.039,10.337-3.294,14.003s-20.507,7-20.507,7l7.467,4.664
		l22.691-10.035c0,0,11.203-8.066,14.953-10.483s33.229-31.229,34.813-43.646s5.674-26.002,6.174-31.169s-2.982-22.921-4.232-25.504
		s-3.898,24.837-30.064,49.504c-26.168,24.667-33.711,33.667-43.794,36.417s-26.03,6.688-31.114,5.938S-729,604.457-729,604.457z"/>
	<path fill="#5D5D5D" d="M-736.932,476.166c0,0-2.334,15.167-1.334,16.167s5.334,3.167,6,1.5c0.667-1.667-0.832-5.723,0-8.528
		c0.834-2.806,0.168-9.306,1-10.306c0.834-1,1.334-3.834-2-2C-736.599,474.833-736.932,476.166-736.932,476.166z"/>
	<g>
		<path fill="#674E47" d="M-707.344,353.907c0,0-10,6.5-9.5,13s0,62,0,62l2.594,11.455c0,0,6.406,18.045,10.406,19.045s14,1,7,6
			s-3.5,9-12,10s-8.537,8.5-8.02,10.5c0.52,2,11.131-4,11.131-4l11.311,2.5l14.078,8.5l5,9.5c0,0,13.5,18,7.5,27s-11.5,27.5-13,27.5
			s-10.5-23-18.5-25.5c0,0-28.5-5.5-44.501-5.5c-16,0-7.5,5.5-9.5,7s4.5,9,10,7s1-8.5,14.001-3.5c13,5,22,5.5,25.5,7.5s2.5,8,6,13
			s10,4,8.5,10.5s-0.5,12.5-6.5,16s-11,4.5-18,6.5s-11.5,3.5-19.501,3.5c-8,0-19.5,0.5-15.5,2.5s3,8,14,6.5
			c11.001-1.5,36.501-5.5,42.001-8.5s3-5.5,12-11s7.574-7.5,14.537-11.5s17.463-12.5,19.463-16.5s5-10,8.5-14.5s5-10,8.5-15
			s7.5-11.5,9-15s1-15,5-23.5s7.5-23,7-30s1.596-18.5,0.047-27.5c-1.547-9,1.953-12,2.953-19s1.5-8.5,0-19s-2.607-25.5,0.945-31.5
			c3.555-6,5.555-9,6.055-16.5s-7.5,0.5-12,3s-8.5,8-8.5-1s-1-18-1-25.5s-1-13-7-15s-17.5-4-28-4.5s-149.501-1.5-155.001,0
			s-14,0.5-16.5,3.5s-11,5-7,7s17.5-0.5,23.5-0.5s166.001-1.5,165.501,1.5s-5.5,4.5-4.5,8.5s-0.5,1,2,7s8,6.5,8,9.5s1.5,6,5,11.5
			s1,3,0.5,6.5s-1.5,5.5-6,3s-3.5-8.5-14-7s-16,3-13,4s9.5,3,12.5,4s8,2.5,9.5,4.5s2,6,2,6s0,8-4,11s-1,9-11,10.5
			s-13.5,1.5-13.5,3.5s1.5,5,2.5,7s-0.5,5-0.5,5l-1,2.5c0,0-1.5,1.5,2.5,2.5s17.5-0.5,19-2s2.5-0.5,3-5s1.5-9,1.5-9s5.5-11.5,6.5-18
			s-6-12.5-1-11.5s7,5.5,8.5,9s6.5,12.5,7,16.5s2,8,0.5,11.5s-2.5,8-3,15s-1,17-4,25s3.5,4.5-5.5,15s-12,19.5-13,23.5s2.5,5-1.5,8.5
			s1.5,1.5-4,3.5s-4,4.5-12-2s-5.5-4-10.5-9.5s-6-1.121-8.5-9.311s-6-19.25-7.5-23.22s-5.5-12.47-5.5-23.22s0-13.75,0-19.75
			s0.5-15.5,0.5-15.5s-3.5,2-5-5s-4-13-4-14.5s5.5-12,5.5-12l0.5-11L-707.344,353.907z"/>
		<g>
			<path fill="#B2423D" d="M-774.88,499.934c0,0,19.5-6.5,27-10.5s11,6,16,5.25s15.5-6.25,23-3.25s21.5,8.5,25,12s-2.5,4.5-8,4.5
				c-24.199,0-24.692-0.434-39,0c-33,1-44-1-44-4.5"/>
			<path fill="#B2423D" d="M-772.44,508.497c0,0,26.5-1.75,30.25,1.25s1.5-0.25,13.5,0s35.5-0.691,35.75,1.279
				s-18,15.721-28.75,15.721s-30.5-0.5-37-5.5S-772.44,508.497-772.44,508.497z"/>
		</g>
	</g>
	<path fill="#261A17" d="M-829.006,343.101c1.333-1.332,9.334-11.666,16.667-14.666s22.333-5.334,29.667-5s15.333,1,18.333,2.666
		c3,1.668,9,4.969,9,7.151s2.333,1.85,3.333,6.517c1,4.666,1.667,5.999-3,3.332c-4.667-2.666-8-8-15.667-8.332
		c-7.667-0.334-23.333-0.334-25,0.332c-1.667,0.667-12.333,1.998-17,4.331s-7,5.336-9.333,7.669c-2.333,2.334-7,8.334-8,8.668
		s-2.666-3-1.333-5S-829.006,343.101-829.006,343.101z"/>
	<path fill="#261A17" d="M-716.861,339.875c0,0,16-11,29-11s25-3,32,0c0,0,8.25,5.5,9.75,9s2.5,8,0,7.25s-5.25,1.416-5.75,0.083
		s-1.25-4.833-5.5-5.083s-14.75-0.75-20-0.5s-17-0.75-19.75-0.25s-6,1.5-9.5,1.5s-10.25,0.5-10.25,0.5V339.875z"/>
	<g>
		<path fill="#27262D" d="M-859.714,271.179c-0.99-31.334-2.334-91.334,0-103.334c2.332-12,12.496-44.666,27.748-60.333
			s58.918-29.333,90.584-30c31.667-0.667,81.333,8.999,100,27.667c18.668,18.666,31.334,46.666,32.668,58.333
			c1.332,11.667,2.332,82.001,2.332,88.333c0,6.334,0,17,0,19.334c0,2.333-51.666,11.333-85.666,11.333s-72.666,0.333-102.333-2.333
			C-824.048,277.512-859.661,272.864-859.714,271.179z"/>
		<path fill="#3E434C" d="M-860.783,274.989c0,0-5-11.666,0-14.333s90.333-6.333,124.667-6
			c34.332,0.333,130.332,0.667,131.332,2.333c1,1.667,0.666,12.334-5,15.334s-67.627,16.666-121.312,14.333
			C-784.783,284.323-836.783,279.323-860.783,274.989z"/>
		<path fill="#30353E" d="M-917.694,278.456c-0.026-0.183-0.102-0.453-0.2-0.793c-0.847-2.909-3.415-10.916,8.45-12.707
			c13.25-2,22,0.75,38.5,4.25s93.25,22.5,160.5,16.25c67.25-6.25,125.5-19.35,145.75-21.174c20.25-1.826,23,9.252,25,11.213
			s3,14.961-12.5,28.961s-33.25,25.25-50.25,27c0,0,2.75-8.75-2.25-14.5s-6.25-11.25-28.5-11.75s-91.25-3.75-101.5-2.5
			c-10.25,1.25-52.75-1.25-64,0.25s-33.5,1-36.5,2s-17.25-0.5-19.25,1.5s-6.75,6-6,9.5s-0.5,6,0,7.25s0,1.5-10.25-2
			s-28.5-18.5-28.5-18.5s-12.75-11.75-14-15.5L-917.694,278.456z"/>
		<path fill="#737F8B" d="M-917.816,276.331c0,0-0.75-7.25,6.5-6.25s37.25,6.25,52.25,8.5s113.75,13.25,135,10.25
			c23.5,0,129-1.75,160.5-13c11.5,1.5,14.75,3,20.25,0.5s1.363-5.941-2.137-7.941s-7.863-4.309-11.863-4.809s-12-1-14.5,0
			s-10.75,2-12.75,3s-3.551,1.819-16.051,3.319s-28.449,5.368-36.699,6.274s-17.594,3.524-24.344,3.524s-84.907,2.632-90.157,1.882
			s-86.5-5-105.5-11.5s-35.25-12.25-43.75-11.5s-19.75,9.5-18.75,11.25S-920.316,275.081-917.816,276.331z"/>
	</g>
	<path fill="#564342" d="M-769.437,347.506c2,1,8,7,8,10s-3.334,7.333-5.667,9.667s-2.667,4.667-3.667,7.667s-1.333,2,0,4.333
		s7.667-1.667,9.333-3.333s4-5,5.333-7s4.333-7,5-11.667s3.333-5.333,0-7.667s-4-8.667-5.667-9s-4-0.333-5.333,0
		s-3.333,2.333-4.333,2.333s-1.667-0.667-3.333,0s-4.092,1.333-1.879,3S-769.437,347.506-769.437,347.506z"/>
</g>
<g>
	<g>
		<path fill="#F6A87F" d="M421.605,337.94c0,0-2-30,3-39.5s7.5-13,12.5-13s11,7,10.5,10.5c-1.793,12.557-3.672,30.22-13.182,50
			c-10.818,22.499-4.318,39.999-4.318,47.499s9.135,13.5,4.318,19.5c-4.818,6-14.818,14.5-16.318,14s2-19.5,0-28.5
			s6.5-44.499,4-48.499S421.605,337.94,421.605,337.94z"/>
		<path fill="#5D5D5D" d="M424.571,335.324c0,0,12.75-44,17-44.5s9.75,4,4.75,17.5s-10.75,20.75-11,24s-3,0-3,4.25
			s2.185,18.037,0.75,20.5c-2.321,3.984-2.321,3.984-3.571,6.234s0.071,2.766,0.821,6.016s0.5,5.249,1.5,6.749s0.25,2.75-0.75,6
			s-2.75,5.25-0.5,8s2.75,5.75,2.75,7.5s0.75,5.75-1.25,7.25s-4.25,3.5-5,4.5s-4.5,1-4.25,0s1.5-15,1.5-15s-2.5-9.75,0-14.75
			s0.75-7.499,0.75-11.999s-0.5-6.5,0.75-9.75s1.75-4.5,1.75-5.25s-0.25-3.5,0.75-6.5s1.25-4-0.25-5
			S423.703,338.263,424.571,335.324z"/>
	</g>
	<g>
		<path fill="#F6A87F" d="M185.349,436.829l-10-4c0,0-4-1.5-3.5-9.5s-2.587-11-0.043-12s3.543-5,3.043-8s-0.5-5.592-2-8.045
			c-1.5-2.455-0.123-8.455-2.062-9.955s-3.938-9.5-3.938-12.499c0-3.001-4-16.001-4-16.001l-3-11c0,0,0-4.5-6.5-14.5s-4.5-35-3-38.5
			s4-9.5,6-10s9.488-0.5,10.744,2s6.756,9.5,8.256,11.5s1.5-1.5,0.5,7.5s1,21,0,25s-0.683,29.504-0.183,33.004
			s0.183,25.496,2.683,29.496s1,17.5,1.5,22.5s1.5,8,3,13S185.349,436.829,185.349,436.829z"/>
		<path fill="#5D5D5D" d="M161.068,295.836c0,0-6.5,1.5-4.5,18s6,26.5,8.5,28s-4.882-17-4.441-17.5s0.077-12,0.259-14.5
			s-3.682-10,0-9.5s3.718,3.5,4.7,5s-1.518-9.5-1.518-9.5H161.068z"/>
	</g>
	<path fill="#FFFFFF" d="M197.866,749.741"/>
	<path fill="#E89B70" d="M187,259.635c18-7.421,184.333,1.359,191.333,0.193s37.166,3.166,40.5,6.666
		c3.332,3.5,2.666,7.668,4.666,12.5c2,4.834,1,12.668,1,20.168s-5.666,72.5-6,83.333c-0.334,10.832-2.666,58.834-4.166,58.666
		c-1.5-0.166-1.666,5.668-4.166,14.168s-16.5,36.832-19.668,42.332c-3.166,5.5-21,27.168-44.666,47.168
		c-27.798,23.492-20.726,21.393-59,17.332c-22-2.334-34.666-17.666-49.166-30.166s-30.667-24.332-32-27.832
		S195,485.495,192.5,469.829s-6.167-25.834-7.333-27.334s-1.834,0.334-5.334,0s-6.833-6.332-8-10.166
		c-1.166-3.832-1.166-9.834,1.5-14.666c2.667-4.834,0.5-2.834,1.167-12.168s2.024-26.168,1.167-33.165
		c-0.914-7.453-8.5-81.168-8.5-81.168s-0.167-7.834,0-14c0.167-6.168,0.583-10.511,3.833-12.167
		C170.782,264.151,187,259.635,187,259.635z"/>
	<g>
		<g>
			<g>
				<path fill="#E8E9DF" d="M202.331,509.856c0,0-8.664,13.921-8.664,22.921s0,45,9,72s26.191,96.892,27,117
					c0.833,20.723,10,72,10,72l121.583-0.845L403,620.334c0,0,17.18-110.478,8.18-110.478s-28.514,76.921-100.514,85.921
					C229.667,577.777,229.331,545.856,202.331,509.856z"/>
				<path fill="#CFC6B7" d="M198.657,499.332c0,0,24.546,70.607,96.547,88.607c-27,72-27,72-27,72l-59.75-38.666
					C208.453,621.273,191.241,506.249,198.657,499.332z"/>
				<path fill="#CFC6B7" d="M304,594.856l27,81l63-54c0,0,9-36,9-90C367,567.856,376,576.856,304,594.856z"/>
			</g>
			<g>
				<path fill="#37373F" d="M-2,649.856l49-18c0,0,21-10,45-24s32.374-17.738,32.374-17.738l2.626-5.262l11-8l16-14l23-27l9-16l8-10
					l5-8l1,11.5v5.5l-3.5,17.5l1.5,17c0,0,0.5,18.5,1.5,22.5s6.5,29,4.5,28s6,22.5,6,22.5s5.5,33.5,7,37.5s10,38.5,11.5,40
					s8,28,5.5,28.5s1.133,21,0.566,22.5s6.434,20.5,6.434,20.5l-1.334,18.421L0,792.856L-2,649.856z"/>
				<path fill="#42454A" d="M198.415,500.689c0,0-8,7.5-11.834,14.5s-9.5,16.834-11,18.167s-2.166,4.667-6.666,10.667
					s-7.668,8.5-7.668,8.5l-8,7.333l-4.5,5.002c0,0-5.666,5.833-6.832,5.833c-1.168,0-2.668,2.667-4.334,3.167
					s-5.834,4.167-5.834,4.167l-4,3.166c0,0-3.332,4-3.832,4.5s-1,3.334-1,3.334l1.916,1.081l-1.916,4.75v6.75v14.25l-2.334,5.25
					c0,0-2,4.75-1.75,6s-2.25,7.25-2.25,8.75s-2,16.75-1.5,20.5s16.25,30.25,19.75,33.75s-3.25,10-3.75,12.25s-9.5,10.5-9.5,10.5
					l-2,6.5c0,0-1.5,3.25,1,6.75s15.25,17,15.25,17s4.75,9.5,3.5,11s5.25,9.25,5.25,9.25l6.5,10l-0.75,6l3.25,10.5h88.25v-12
					c0,0-8.5-39.5-7.75-40.5s-4-24-4-24l-8-31l-6.25-23.25l-6.75-33l-3.75-18l-2.25-17l-3.5-18.5l-2-10.25l-0.5-13.75
					c0,0-1-11.75-0.5-16.5s2.5-14.25,2.5-14.25l1.25-3.25l2-2.5v-2.25l-1.5-4L198.415,500.689z"/>
			</g>
			<g>
				<path fill="#37373F" d="M406.25,495.933c0,0,0,72,0,90c0,20.125-27,144-36,162s-9,45-9,45l252.75-1.5l-0.25-140.75
					c0,0-18.5-10.75-36.5-19.75s-99-45-135-90S406.25,495.933,406.25,495.933z"/>
				<path fill="#42454A" d="M412.248,502.49v19c0,0-2,33.25-2,35.75s-7.25,58.75-8,59.75s-3.25,22.75-4.75,30.5
					s-21.75,101.25-24,101.75s-10.75,43.75-11.25,43s106.25,0.01,106.25,0.01s32.25-65.26,32.75-68.51s-1.75-10.25-3.5-11.25
					s-24-25.5-28-24.75s15.5-33,22-35.25s0.75-22.25,0.5-32s1.25-28.5,0.5-30s-45-38.25-55.25-52.75s-20-32.5-22.25-35.25
					s-3.75-3-3.75-3L412.248,502.49z"/>
			</g>
		</g>
		<path fill="#CB644D" d="M295,590.933h9c0,0,18,54,18,63s-9,18-9,18s27,54,27,63s-3,58.845,0,58.845s-52.999-0.267-61.999-0.267
			s-13.335,5.346-13.335-3.654S277,707.933,277,707.933s9-27,9-36s-9-27-9-27s0-9,9-27C294.05,601.833,295,590.933,295,590.933z"/>
	</g>
	<path fill="#CB8764" d="M197.619,487.154l0.795,13.535c0,0,8.563,30.057,24.73,45.224s20,27.334,68.667,45.667
		c0,0,49.833,2.334,78.833-24.166s32.502-40,35.168-47.5s1.166-47.834,1.166-47.834s-10.668,21.5-19,34.167
		c-3.287,4.996-51.07,46.198-53.334,47.5c-6.666,3.833-26.666,5.501-34.833,5.167c-8.166-0.334-18.166-1-24.166-4.667
		s-59.145-38.582-66.312-50.582S197.619,487.154,197.619,487.154z"/>
	<path fill="#3D3331" d="M299.5,562.622c0,0,49-2.667,49.333-1s6.039,10.337-3.293,14.003c-9.334,3.666-20.508,7-20.508,7
		l7.467,4.664l22.691-10.035c0,0,11.203-8.066,14.953-10.483s33.23-31.229,34.813-43.646c1.584-12.416,5.674-26.002,6.174-31.169
		s-2.982-22.921-4.232-25.504s-3.898,24.837-30.064,49.504c-26.168,24.667-33.711,33.667-43.793,36.417
		c-10.084,2.75-26.031,6.688-31.115,5.938C296.842,557.562,299.5,562.622,299.5,562.622z"/>
	<path fill="#5D5D5D" d="M292.068,434.975c0,0-2.334,15.167-1.334,16.167s5.334,3.167,6,1.5c0.667-1.667-0.832-5.723,0-8.528
		c0.834-2.806,0.168-9.306,1-10.306c0.834-1,1.334-3.834-2-2C292.401,433.642,292.068,434.975,292.068,434.975z"/>
	<g>
		<path fill="#674E47" d="M326.211,310.394c0,0-10,6.5-9.5,13s0,62,0,62l2.594,11.455c0,0,6.406,18.045,10.406,19.045s14,1,7,6
			s-3.5,9-12,10s-8.537,8.5-8.02,10.5c0.52,2,11.131-4,11.131-4l11.311,2.5l14.078,8.5l5,9.5c0,0,13.5,18,7.5,27s-11.5,27.5-13,27.5
			s-10.5-23-18.5-25.5c0,0-28.5-5.5-44.5-5.5c-16,0-7.5,5.5-9.5,7s4.5,9,10,7s1-8.5,14.001-3.5c13,5,22,5.5,25.5,7.5s2.5,8,6,13
			s10,4,8.5,10.5s-0.5,12.5-6.5,16s-11,4.5-18,6.5s-11.5,3.5-19.5,3.5c-8,0-19.5,0.5-15.5,2.5s3,8,14,6.5c11-1.5,36.5-5.5,42-8.5
			s4.505-3.578,12-11c7.574-7.5,7.574-7.5,14.537-11.5s17.463-12.5,19.463-16.5s5-10,8.5-14.5s5-10,8.5-15s7.5-11.5,9-15
			s1-15,5-23.5s7.5-23,7-30s1.596-18.5,0.047-27.5c-1.547-9,1.953-12,2.953-19s1.5-8.5,0-19s-2.607-25.5,0.945-31.5
			c3.555-6,5.555-9,6.055-16.5s-7.5,0.5-12,3s-8.5,8-8.5-1s-1-18-1-25.5s-1-13-7-15s-17.5-4-28-4.5s-149.5-1.5-155,0
			s-14,0.5-16.5,3.5s-11,5-7,7s17.5-0.5,23.5-0.5s166-1.5,165.5,1.5s-5.5,4.5-4.5,8.5s-0.5,1,2,7s8,6.5,8,9.5s1.5,6,5,11.5
			s1,3,0.5,6.5s-1.5,5.5-6,3s-3.5-8.5-14-7s-16,3-13,4s9.5,3,12.5,4s8,2.5,9.5,4.5s2,6,2,6s0,8-4,11s-1,9-11,10.5
			s-13.5,1.5-13.5,3.5s1.5,5,2.5,7s-0.5,5-0.5,5l-1,2.5c0,0-1.5,1.5,2.5,2.5s17.5-0.5,19-2s2.5-0.5,3-5s1.5-9,1.5-9s5.5-11.5,6.5-18
			s-6-12.5-1-11.5s7,5.5,8.5,9s6.5,12.5,7,16.5s2,8,0.5,11.5s-2.5,8-3,15s-1,17-4,25c-5.424,14.464-1.074,9.837-5.5,15
			c-9,10.5-12,19.5-13,23.5s2.5,5-1.5,8.5s1.5,1.5-4,3.5s-4,4.5-12-2s-5.5-4-10.5-9.5s-6-1.121-8.5-9.311s-6-19.25-7.5-23.22
			s-5.5-12.47-5.5-23.22s0-13.75,0-19.75s0.5-15.5,0.5-15.5s-3.5,2-5-5s-4-13-4-14.5s5.5-12,5.5-12l0.5-11L326.211,310.394z"/>
		<g>
			<path fill="#B2423D" d="M254.12,458.742c0,0,19.5-6.5,27-10.5s11,6,16,5.25s15.5-6.25,23-3.25s21.5,8.5,25,12s-2.5,4.5-8,4.5
				c-24.199,0-24.691-0.434-39,0c-33,1-44-1-44-4.5"/>
			<path fill="#B2423D" d="M256.56,467.306c0,0,26.5-1.75,30.25,1.25s1.5-0.25,13.5,0c12,0.25,35.5-0.691,35.75,1.279
				s-18,15.721-28.75,15.721c-10.75,0-30.5-0.5-37-5.5S256.56,467.306,256.56,467.306z"/>
		</g>
	</g>
	<path fill="#261A17" d="M201.913,302.134c1.333-1.332,9.334-11.666,16.667-14.666s22.333-5.334,29.667-5s15.333,1,18.333,2.666
		c3,1.668,9,4.969,9,7.151s2.333,1.85,3.333,6.517c1,4.666,1.667,5.999-3,3.332c-4.667-2.666-8-8-15.667-8.332
		c-7.667-0.334-23.333-0.334-25,0.332c-1.667,0.667-12.333,1.998-17,4.331s-7,5.336-9.333,7.669c-2.333,2.334-7,8.334-8,8.668
		s-2.666-3-1.333-5S201.913,302.134,201.913,302.134z"/>
	<path fill="#261A17" d="M312.139,298.684c0,0,16-11,29-11s25-3,32,0c0,0,8.25,5.5,9.75,9s2.5,8,0,7.25s-5.25,1.416-5.75,0.083
		s-1.25-4.833-5.5-5.083s-14.75-0.75-20-0.5s-17-0.75-19.75-0.25s-6,1.5-9.5,1.5s-10.25,0.5-10.25,0.5V298.684z"/>
	<g>
		<path fill="#27262D" d="M169.286,229.987c-0.99-31.334-2.334-91.334,0-103.334c2.332-12,12.496-44.666,27.748-60.333
			s58.918-29.333,90.584-30c31.667-0.667,81.333,8.999,99.999,27.667c18.668,18.666,31.334,46.666,32.668,58.333
			c1.332,11.667,2.332,82.001,2.332,88.333c0,6.334,0,17,0,19.334c0,2.333-51.666,11.333-85.666,11.333
			c-34,0-72.665,0.333-102.333-2.333C204.952,236.32,169.339,231.673,169.286,229.987z"/>
		<path fill="#3E434C" d="M168.217,233.798c0,0-5-11.666,0-14.333s90.333-6.333,124.667-6c34.331,0.333,130.331,0.667,131.331,2.333
			c1,1.667,0.666,12.334-5,15.334s-67.627,16.666-121.312,14.333C244.217,243.132,192.217,238.132,168.217,233.798z"/>
		<path fill="#30353E" d="M111.306,237.265c-0.026-0.183-0.102-0.453-0.2-0.793c-0.847-2.909-3.415-10.916,8.45-12.707
			c13.25-2,22,0.75,38.5,4.25s93.25,22.5,160.499,16.25c67.25-6.25,125.5-19.35,145.75-21.174c20.25-1.826,23,9.252,25,11.213
			s3,14.961-12.5,28.961s-35.055,25.772-52.055,27.522c-0.061,0.191,0.704-7.532-2.16-14.528
			c-2.887-7.052-4.535-11.745-26.785-12.245s-91.25-3.75-101.499-2.5c-10.25,1.25-52.75-1.25-64,0.25s-33.5,1-36.5,2
			s-17.25-0.5-19.25,1.5s-6.75,6-6,9.5s-0.5,6,0,7.25s0,1.5-10.25-2s-28.5-18.5-28.5-18.5s-12.75-11.75-14-15.5L111.306,237.265z"/>
		<path fill="#737F8B" d="M111.184,235.14c0,0-0.75-7.25,6.5-6.25s37.25,6.25,52.25,8.5s113.75,13.25,135,10.25
			c23.5,0,129-1.75,160.5-13c11.5,1.5,14.75,3,20.25,0.5s1.363-5.941-2.137-7.941s-7.863-4.309-11.863-4.809s-12-1-14.5,0
			s-10.75,2-12.75,3s-3.551,1.819-16.051,3.319s-28.449,5.368-36.699,6.274s-17.594,3.524-24.344,3.524s-84.906,2.632-90.156,1.882
			s-86.5-5-105.5-11.5s-35.25-12.25-43.75-11.5s-19.75,9.5-18.75,11.25S108.684,233.89,111.184,235.14z"/>
	</g>
	<path fill="#564342" d="M265.507,319.155c2,1,8,7,8,10s-3.334,7.333-5.667,9.667s-2.667,4.667-3.667,7.667s-1.333,2,0,4.333
		s7.667-1.667,9.333-3.333s4-5,5.333-7s4.333-7,5-11.667s3.333-5.333,0-7.667s-4-8.667-5.667-9s-4-0.333-5.333,0
		s-3.333,2.333-4.333,2.333s-1.667-0.667-3.333,0s-4.092,1.333-1.879,3S265.507,319.155,265.507,319.155z"/>
</g>
<g>
	<path fill="none" stroke="#564342" stroke-miterlimit="10" d="M-824.658,359.198c3.5-0.5,5.5,2.5,8,0s11-6.5,16.5-6.5s8.5,0,13,0
		s9.5,2.008,14,3.754s7,3.762,8.5,3.754"/>
	<path fill="#564342" d="M-824.658,354.448c0,0,17.377-16.272,33.25-14.75c18.25,1.75,30.5,14.777,32.5,19.139
		s-3.25-2.889-5.75-3.389s-13.5-9.75-23.5-10.25s-10.25-2.25-17,0.75s-10.831,5.771-15.25,6.867L-824.658,354.448z"/>
</g>
<ellipse fill="#674E47" cx="-712.305" cy="465.869" rx="9.787" ry="4.587"/>
<ellipse fill="#674E47" cx="-749.463" cy="465.869" rx="9.787" ry="4.587"/>
<ellipse fill="#674E47" cx="316.538" cy="423.31" rx="10.538" ry="3.554"/>
<ellipse fill="#674E47" cx="277.715" cy="423.31" rx="10.538" ry="3.554"/>
</svg>
