<?xml version="1.0" encoding="utf-8"?>
<!-- Generator: Adobe Illustrator 16.0.0, SVG Export Plug-In . SVG Version: 6.00 Build 0)  -->
<!DOCTYPE svg PUBLIC "-//W3C//DTD SVG 1.1//EN" "http://www.w3.org/Graphics/SVG/1.1/DTD/svg11.dtd">
<svg version="1.1" id="레이어_1" xmlns="http://www.w3.org/2000/svg" xmlns:xlink="http://www.w3.org/1999/xlink" x="0px"
	 y="0px" width="73.667px" height="87.834px" viewBox="0 0 73.667 87.834" enable-background="new 0 0 73.667 87.834"
	 xml:space="preserve">
<g>
	<ellipse fill="#A7BB5A" cx="36.789" cy="51.573" rx="35.958" ry="33.491"/>
	<ellipse fill="#777349" cx="38.473" cy="20.618" rx="9.297" ry="1.194"/>
	<g>
		<polygon fill="#4D2A24" points="37.001,21.518 39.925,21.518 49.1,1.665 43.795,1.796 		"/>
		<ellipse fill="#0B0708" cx="46.819" cy="1.666" rx="2.63" ry="0.534"/>
	</g>
	<linearGradient id="SVGID_1_" gradientUnits="userSpaceOnUse" x1="14.9258" y1="39.7266" x2="21.5913" y2="39.7266">
		<stop  offset="0" style="stop-color:#5F7E4E"/>
		<stop  offset="0.468" style="stop-color:#20803B"/>
		<stop  offset="0.6897" style="stop-color:#45443F"/>
		<stop  offset="0.7216" style="stop-color:#403F3B"/>
		<stop  offset="0.7952" style="stop-color:#3B3935"/>
		<stop  offset="1" style="stop-color:#3A3734"/>
		<stop  offset="1" style="stop-color:#000000"/>
	</linearGradient>
	<ellipse fill="url(#SVGID_1_)" cx="18.259" cy="39.727" rx="3.333" ry="2.413"/>
	<path fill="#777349" d="M7.145,32.668c0,0,10.305-6.899,25.054-3.386c0.644,0.154,1.296,0.327,1.958,0.523
		c3.587,1.057,6.158,1.486,8.09,1.585c6.576,0.337,5.751-3.147,12.257,1.278c8.42,5.726,12.278,13.958,8.069,19.326
		c-4.211,5.369-8.42,19.325-19.295,21.115c-10.876,1.79-18.944,3.579-24.908,3.221c-5.964-0.358-15.437-13.6-14.033-10.736
		c1.403,2.863,3.508,7.516,4.561,8.59c1.052,1.072,2.807,2.862,5.262,4.652c2.456,1.789,10.931,5.367,10.931,5.367
		s4.855,2.205,5.908,2.205c1.052,0,1.639,0,8.538,0c6.898,0,11.458-2.205,15.669-3.636c4.209-1.432,7.64-5.368,9.082-6.801
		c1.441-1.431,5.3-7.515,5.3-7.515l3.158-8.828v-14.98l-6.665-10.907c0,0-4.561-8.532-5.964-8.202
		c-1.403,0.328-7.367-2.535-7.367-2.535l-4.21,2.535l-23.448-2.535c0,0-2.863,2.205-3.915,2.535
		c-1.053,0.328-11.226,3.191-11.226,3.191l-3.508,5.726"/>
</g>
</svg>
