<?xml version="1.0" encoding="utf-8"?>
<!-- Generator: Adobe Illustrator 16.0.0, SVG Export Plug-In . SVG Version: 6.00 Build 0)  -->
<!DOCTYPE svg PUBLIC "-//W3C//DTD SVG 1.1//EN" "http://www.w3.org/Graphics/SVG/1.1/DTD/svg11.dtd">
<svg version="1.1" id="레이어_1" xmlns="http://www.w3.org/2000/svg" xmlns:xlink="http://www.w3.org/1999/xlink" x="0px"
	 y="0px" width="193px" height="85.04px" viewBox="0 0 193 85.04" enable-background="new 0 0 193 85.04" xml:space="preserve">
<g>
	<g>
		<ellipse fill="#5E3329" cx="33.292" cy="5.457" rx="29.833" ry="3.416"/>
		<ellipse fill="#322625" cx="34.95" cy="5.095" rx="23.656" ry="1.445"/>
		<path fill="#5B3533" d="M184.13,11.543c0,0-28.34,2.5-42,16c-13.67,13.5-29.84,22-42.84,36.001c-13,14-22.161,19.33-34.5,21.33
			c-1.439,0.23-2.627,1.426-3.496,0.666c-1.791,2.09-4.795,1.334-8.834,1.334l-16.83-1c-6.631,0-32.17-10.5-30.67-38.501l-1.5-37.33
			c0-8.46-0.68-1.68,14.129-1.68l35.73-0.37c6.631,0,9.811-5.75,9.811,0.88v39.33c0,0,7.33,2.17,12.66,0
			c5.34-2.16,49.84-33,69.34-38.16c19.5-5.17,32.83-7.62,37.83-6.391C184.63,6.703,184.63,8.543,184.13,11.543z"/>
		<path fill="#080304" d="M189.96,10.373c0,1.934-1.568,3.5-3.5,3.5l0,0c-1.934,0-3.5-1.566-3.5-3.5v-7c0-1.934,1.566-3.5,3.5-3.5
			l0,0c1.932,0,3.5,1.566,3.5,3.5V10.373z"/>
	</g>
	<path fill="#080304" d="M104.015,31.844c5.75,6.5,6.621,18.188,7,19.5c0.381,1.314,23.871-17.033,33-26.25
		c9.049-7.539,31-11.499,36.5-10.249s0-9.75,0-9.75s-6.297,1.04-20.75,2.5c-14.451,1.46-50.25,17.188-53,20.72L104.015,31.844z"/>
</g>
</svg>
